<?xml version="1.0" standalone="no"?>
<!DOCTYPE svg PUBLIC "-//W3C//DTD SVG 20010904//EN"
 "http://www.w3.org/TR/2001/REC-SVG-20010904/DTD/svg10.dtd">
<svg version="1.0" xmlns="http://www.w3.org/2000/svg"
 width="260.000000pt" height="260.000000pt" viewBox="0 0 260.000000 260.000000"
 preserveAspectRatio="xMidYMid meet">
<metadata>
Created by potrace 1.14, written by Peter Selinger 2001-2017
</metadata>
<g transform="translate(0.000000,260.000000) scale(0.100000,-0.100000)"
fill="#000000" stroke="none">
<path d="M0 1300 l0 -1300 1300 0 1300 0 0 1300 0 1300 -1300 0 -1300 0 0
-1300z m1828 763 c1 -106 -1 -193 -4 -193 -4 0 -17 8 -28 18 -11 9 6 -12 38
-48 100 -112 103 -127 7 -30 -51 50 -90 95 -87 98 8 7 -33 35 -104 71 -55 28
-169 62 -206 60 -10 0 6 -7 36 -15 66 -18 205 -81 222 -102 7 -8 -11 -3 -41
12 -29 15 -60 25 -68 22 -8 -3 -11 -2 -8 4 3 5 -25 19 -62 31 -53 17 -98 22
-198 25 -90 2 -119 0 -95 -6 29 -7 24 -8 -23 -4 -81 6 -228 -45 -327 -113 -24
-17 -24 -17 -11 0 27 34 146 96 231 121 47 14 75 25 62 25 -52 2 -211 -63
-285 -115 -26 -19 -51 -34 -56 -34 -5 0 -14 -7 -21 -15 -7 -8 -16 -15 -21 -15
-10 0 -12 383 -2 393 3 4 241 6 527 5 l521 -3 3 -192z m-420 -60 c-10 -2 -26
-2 -35 0 -10 3 -2 5 17 5 19 0 27 -2 18 -5z m-298 -27 c-41 -13 -84 -26 -95
-30 -20 -7 -20 -7 0 5 26 16 124 48 150 48 11 0 -14 -10 -55 -23z m353 17 c-7
-2 -19 -2 -25 0 -7 3 -2 5 12 5 14 0 19 -2 13 -5z m44 -9 c-3 -3 -12 -4 -19
-1 -8 3 -5 6 6 6 11 1 17 -2 13 -5z m2 -66 c74 -20 88 -27 172 -82 66 -44 167
-144 206 -203 61 -96 103 -236 104 -350 3 -382 -335 -694 -726 -670 -199 12
-382 106 -499 257 -92 119 -121 195 -149 384 -8 54 14 179 46 260 87 220 302
391 537 426 78 11 222 1 309 -22z m-519 17 c0 -2 -13 -11 -30 -20 -38 -19 -40
-11 -2 9 31 17 32 18 32 11z m720 -45 c8 -5 11 -10 5 -10 -5 0 -21 10 -35 21
-24 20 -5 13 30 -11z m-820 -14 c0 -2 -8 -10 -17 -17 -16 -13 -17 -12 -4 4 13
16 21 21 21 13z m-212 -179 c-12 -16 -34 -52 -49 -81 -34 -60 -38 -49 -8 21
32 76 60 117 70 102 4 -8 -1 -25 -13 -42z m1222 23 c12 -16 19 -30 16 -30 -2
0 -14 14 -26 30 -12 17 -19 30 -16 30 2 0 14 -13 26 -30z m50 -30 c6 -11 8
-20 6 -20 -3 0 -10 9 -16 20 -6 11 -8 20 -6 20 3 0 10 -9 16 -20z m-10 -30 c6
-11 8 -20 6 -20 -3 0 -10 9 -16 20 -6 11 -8 20 -6 20 3 0 10 -9 16 -20z m54
-120 c3 -14 -5 -1 -19 29 -14 29 -25 56 -25 60 1 11 37 -63 44 -89z m-1403
-11 c-5 -13 -10 -19 -10 -12 -1 15 10 45 15 40 3 -2 0 -15 -5 -28z m1427 -74
c0 -16 -2 -15 -8 5 -11 34 -11 60 0 35 5 -11 8 -29 8 -40z m-1448 -25 c-5 -36
-10 -103 -10 -149 0 -46 -3 -82 -6 -78 -10 10 -5 204 7 252 16 63 20 52 9 -25z
m-545 10 c3 -5 1 -10 -4 -10 -6 0 -11 5 -11 10 0 6 2 10 4 10 3 0 8 -4 11 -10z
m2022 -27 c-3 -10 -5 -4 -5 12 0 17 2 24 5 18 2 -7 2 -21 0 -30z m10 -160 c-2
-27 -3 -5 -3 47 0 52 1 74 3 48 2 -27 2 -69 0 -95z m-10 -95 c-3 -8 -6 -5 -6
6 -1 11 2 17 5 13 3 -3 4 -12 1 -19z m-1469 -54 c-3 -14 -5 -12 -10 9 -3 19
-2 25 4 19 6 -6 8 -18 6 -28z m49 -116 c13 -27 21 -48 18 -48 -8 0 -55 98 -54
112 0 9 3 8 6 -2 3 -8 16 -36 30 -62z m1270 -90 c-20 -29 -45 -63 -56 -75 -12
-12 -21 -25 -21 -28 0 -4 -14 -18 -30 -32 -17 -13 -28 -28 -25 -33 3 -4 -3
-14 -12 -21 -14 -12 -16 -12 -9 0 6 9 4 12 -5 9 -8 -3 -14 -11 -14 -19 0 -8
-8 -13 -17 -11 -9 1 -20 -3 -24 -9 -4 -8 -3 -9 4 -5 7 4 12 5 12 2 0 -3 -10
-10 -21 -17 -16 -8 -20 -8 -14 1 6 9 2 9 -14 1 -11 -7 -21 -16 -21 -21 0 -11
-107 -52 -138 -52 -12 0 -25 -4 -28 -9 -3 -5 -16 -6 -29 -3 -12 3 -25 1 -29
-4 -6 -9 -134 -7 -230 4 -65 7 -173 47 -246 90 -32 19 -67 34 -78 34 -29 0
-66 48 -51 66 8 10 1 26 -33 66 -24 29 -50 62 -57 73 -8 11 3 0 25 -25 93
-109 189 -183 295 -226 205 -83 450 -67 639 43 75 44 196 159 230 220 13 24
25 41 28 39 2 -3 -12 -29 -31 -58z m68 23 c-8 -17 -20 -31 -25 -31 -5 0 0 16
12 35 25 43 36 40 13 -4z m-1068 -269 c113 -72 274 -122 395 -122 72 0 111
-13 144 -47 40 -42 153 -123 173 -124 9 -1 -9 -5 -39 -9 -47 -7 -385 -11 -712
-10 l-88 0 0 193 c0 107 3 197 7 200 4 4 18 -4 32 -17 14 -13 54 -42 88 -64z
m1678 -402 c3 -5 1 -10 -4 -10 -6 0 -11 5 -11 10 0 6 2 10 4 10 3 0 8 -4 11
-10z m-19 -87 c-10 -10 -19 5 -10 18 6 11 8 11 12 0 2 -7 1 -15 -2 -18z m-76
-47 c0 -3 -4 -8 -10 -11 -5 -3 -10 -1 -10 4 0 6 5 11 10 11 6 0 10 -2 10 -4z"/>
<path d="M1208 2043 c12 -2 32 -2 45 0 12 2 2 4 -23 4 -25 0 -35 -2 -22 -4z"/>
<path d="M1353 2043 c15 -2 37 -2 50 0 12 2 0 4 -28 4 -27 0 -38 -2 -22 -4z"/>
<path d="M1215 1864 c-56 -9 -130 -36 -194 -71 -184 -101 -302 -319 -288 -528
3 -44 9 -91 12 -105 5 -19 4 -22 -4 -10 -9 13 -11 13 -11 -2 0 -10 7 -18 16
-18 9 0 14 -6 12 -12 -3 -7 2 -19 10 -27 13 -13 12 -16 -4 -22 -17 -6 -17 -8
6 -17 14 -6 19 -11 12 -11 -7 -1 -10 -6 -7 -11 4 -6 10 -8 15 -5 5 3 12 0 16
-6 4 -8 3 -9 -4 -5 -7 4 -12 2 -12 -3 0 -6 4 -11 9 -11 5 0 12 -13 16 -29 5
-22 11 -28 24 -24 11 3 21 -2 25 -13 5 -14 4 -15 -9 -4 -12 10 -15 10 -15 -4
0 -9 7 -16 16 -16 8 0 12 -4 9 -10 -3 -5 1 -10 10 -10 10 0 14 5 10 13 -4 6 0
5 7 -3 14 -16 23 -22 103 -70 181 -109 387 -119 574 -27 83 40 91 43 66 23
-15 -11 -16 -15 -5 -15 8 -1 33 15 54 33 22 20 46 32 55 29 12 -3 11 -2 -2 7
-14 9 -22 9 -35 -1 -9 -7 0 5 21 28 27 28 45 39 58 36 14 -4 19 0 19 16 0 13
4 19 11 16 14 -9 49 24 42 41 -8 21 20 74 39 74 11 0 18 7 17 18 0 10 -3 12
-6 5 -2 -7 -9 -13 -14 -13 -4 0 -6 7 -3 15 4 8 12 15 20 15 8 0 14 4 14 10 0
5 -8 7 -17 3 -17 -6 -17 -5 0 14 9 11 17 28 17 39 0 11 5 25 12 32 7 7 8 12 2
12 -6 0 -16 -12 -23 -27 -19 -42 -31 -11 -31 82 0 309 -239 559 -545 570 -49
2 -103 1 -120 -1z m98 -41 c-13 -2 -33 -2 -45 0 -13 2 -3 4 22 4 25 0 35 -2
23 -4z m133 -168 c49 -22 56 -29 43 -38 -14 -9 -9 -17 36 -61 50 -49 50 -49 4
-8 -52 45 -69 51 -89 27 -7 -8 -23 -15 -37 -15 -13 0 -22 -4 -19 -9 3 -5 -21
-12 -55 -16 -48 -6 -64 -4 -78 9 -10 9 -29 16 -42 16 -36 0 -53 20 -31 37 15
11 13 12 -13 2 -33 -11 -105 -58 -105 -68 -1 -3 -12 -19 -26 -36 -18 -20 -22
-23 -15 -8 6 12 16 25 21 28 6 3 10 11 10 17 0 6 -7 5 -17 -3 -10 -7 -7 -1 6
13 13 15 28 25 32 22 5 -3 22 5 38 17 27 20 29 24 14 34 -15 11 -13 15 18 30
101 53 206 57 305 10z m120 -107 l29 -33 -32 29 c-31 28 -38 36 -30 36 2 0 16
-15 33 -32z m39 -89 c9 -17 15 -33 13 -35 -3 -2 -12 12 -21 31 -21 43 -13 47
8 4z m-602 -14 c-3 -9 -8 -14 -10 -11 -3 3 -2 9 2 15 9 16 15 13 8 -4z m-16
-47 c-3 -8 -6 -5 -6 6 -1 11 2 17 5 13 3 -3 4 -12 1 -19z m357 -20 c-1 -10 5
-18 13 -18 8 0 11 -5 8 -11 -4 -6 2 -13 12 -15 18 -5 19 -9 9 -47 -15 -56 -52
-97 -88 -97 -15 0 -28 5 -28 12 0 6 -12 1 -26 -13 l-27 -24 17 32 c9 17 12 34
8 37 -5 3 -9 25 -10 50 -2 35 2 48 19 60 12 8 18 19 14 25 -12 20 6 32 43 29
28 -2 37 -7 36 -20z m-366 -65 c0 -38 5 -81 11 -96 14 -36 14 -50 0 -41 -6 3
-4 -8 5 -24 19 -37 20 -45 4 -36 -8 4 -10 3 -5 -2 5 -5 13 -10 18 -10 5 -1 11
-3 14 -4 3 -1 11 -3 18 -4 6 0 12 -8 12 -16 1 -8 6 -14 12 -13 7 2 22 -10 36
-26 31 -37 68 -56 140 -71 78 -16 125 -7 251 45 15 7 17 5 11 -6 -6 -11 -5
-12 6 -1 18 17 34 15 20 -2 -9 -10 -9 -16 -1 -21 8 -5 8 -11 1 -19 -6 -7 -8
-16 -4 -20 4 -4 -1 -4 -11 0 -13 5 -17 4 -12 -4 5 -8 1 -10 -10 -5 -12 4 -15
3 -10 -5 5 -8 1 -10 -10 -5 -12 4 -15 3 -10 -5 5 -9 0 -9 -19 -2 -37 14 -44
12 -15 -5 l25 -15 -30 6 c-20 4 -26 3 -17 -4 20 -14 -19 -22 -110 -22 -85 0
-203 34 -177 51 8 5 19 9 24 9 6 0 3 -5 -5 -10 -8 -5 -10 -10 -5 -10 6 0 16 4
23 9 11 7 10 10 -3 15 -9 3 -21 3 -26 0 -6 -3 -21 2 -35 11 -13 9 -30 13 -36
9 -6 -4 -8 -3 -5 3 3 5 -11 27 -33 48 -22 21 -37 42 -34 47 3 5 0 17 -8 26
-12 15 -11 16 5 3 9 -7 17 -11 17 -8 0 11 -47 76 -52 72 -2 -2 -4 4 -4 15 0
10 3 17 6 15 3 -2 12 0 18 4 10 6 10 19 2 56 -9 39 -5 135 5 135 1 0 3 -30 3
-67z m647 -108 c-8 -30 -19 -56 -23 -59 -5 -3 -1 18 9 47 10 29 19 84 21 122
l2 70 3 -63 c3 -38 -2 -85 -12 -117z m-678 78 c-3 -10 -5 -2 -5 17 0 19 2 27
5 18 2 -10 2 -26 0 -35z m106 -110 c23 -43 80 -97 125 -119 54 -26 171 -31
229 -9 79 31 141 99 169 188 10 32 13 36 13 17 1 -20 3 -22 11 -10 24 37 8
-31 -21 -88 -87 -175 -308 -226 -463 -107 -24 18 -48 30 -52 27 -4 -4 -4 -2
-1 4 3 6 -4 26 -17 45 -34 50 -48 102 -40 146 l7 38 12 -50 c6 -27 19 -64 28
-82z m-116 55 c-3 -7 -5 -2 -5 12 0 14 2 19 5 13 2 -7 2 -19 0 -25z m25 -1 c3
-14 0 -24 -7 -24 -7 0 -10 10 -7 24 2 13 6 23 7 23 1 0 5 -10 7 -23z m74 -124
c-5 -5 -36 50 -36 64 0 4 9 -7 21 -26 11 -18 18 -35 15 -38z m125 30 c13 -16
12 -17 -3 -4 -17 13 -22 21 -14 21 2 0 10 -8 17 -17z m620 -10 c-12 -20 -14
-14 -5 12 4 9 9 14 11 11 3 -2 0 -13 -6 -23z m-919 -45 c42 -80 137 -175 210
-210 157 -76 314 -76 468 0 63 31 177 140 202 193 17 35 55 53 43 20 -18 -48
-77 -129 -130 -178 -106 -98 -137 -119 -155 -108 -6 3 -10 2 -10 -3 0 -33
-245 -50 -325 -23 -78 26 -135 53 -129 62 3 5 2 9 -3 8 -20 -3 -34 2 -28 11 4
6 3 9 -2 8 -4 -2 -28 18 -53 43 -41 41 -42 41 -10 4 l35 -40 -42 39 c-24 22
-41 42 -38 44 2 3 -4 17 -14 31 -34 48 -54 96 -56 129 0 17 0 32 2 32 1 0 17
-28 35 -62z m572 41 c-8 -14 -68 -39 -91 -38 -10 0 3 7 29 15 26 8 50 19 53
24 3 6 8 10 11 10 3 0 2 -5 -2 -11z m-162 -30 c29 -7 47 -14 41 -16 -17 -6
-120 25 -129 38 -4 8 -1 8 14 0 11 -6 44 -16 74 -22z m313 1 c-21 -23 -19 -35
3 -19 14 11 14 10 -2 -8 -10 -13 -22 -20 -27 -18 -4 3 -10 1 -13 -4 -4 -5 -1
-13 5 -17 8 -5 9 -3 4 6 -5 9 -4 11 4 6 6 -4 18 -3 25 3 25 21 14 -18 -12 -41
-14 -13 -22 -17 -17 -9 6 11 4 13 -10 7 -15 -5 -16 -4 -6 8 14 17 -2 31 -21
20 -7 -4 3 9 21 29 19 21 32 37 27 37 -4 0 -5 4 -2 8 3 5 12 9 21 9 13 0 13
-2 0 -17z"/>
<path d="M970 1155 c0 -5 5 -17 10 -25 5 -8 10 -10 10 -5 0 6 -5 17 -10 25 -5
8 -10 11 -10 5z"/>
<path d="M1001 1071 c-9 -16 -3 -26 33 -59 54 -50 85 -68 82 -47 -1 8 -6 18
-11 22 -4 4 -5 2 -1 -4 11 -20 -6 -15 -38 10 -33 27 -51 81 -19 56 10 -7 7 -1
-6 14 -29 32 -28 32 -40 8z m20 -28 c13 -16 12 -17 -3 -4 -10 7 -18 15 -18 17
0 8 8 3 21 -13z"/>
<path d="M1480 955 c-25 -13 -41 -24 -37 -25 11 0 87 39 87 45 0 7 0 7 -50
-20z"/>
<path d="M1188 903 c7 -3 16 -2 19 1 4 3 -2 6 -13 5 -11 0 -14 -3 -6 -6z"/>
<path d="M1238 893 c7 -3 16 -2 19 1 4 3 -2 6 -13 5 -11 0 -14 -3 -6 -6z"/>
<path d="M1358 893 c7 -3 16 -2 19 1 4 3 -2 6 -13 5 -11 0 -14 -3 -6 -6z"/>
<path d="M1569 1013 c-13 -16 -12 -17 4 -4 16 13 21 21 13 21 -2 0 -10 -8 -17
-17z"/>
<path d="M1893 1268 c-1 -48 1 -59 9 -45 15 28 20 74 8 82 -6 3 -8 11 -5 16 4
5 3 9 -2 9 -4 0 -9 -28 -10 -62z"/>
<path d="M1744 919 c-19 -22 -19 -22 4 -10 12 6 22 16 22 21 0 15 -5 12 -26
-11z"/>
<path d="M886 868 c4 -6 22 -17 42 -25 27 -11 32 -17 21 -24 -12 -7 -12 -9 1
-9 9 0 33 -9 55 -20 22 -11 45 -20 53 -20 7 0 11 -4 8 -8 -2 -4 3 -8 12 -9 9
-1 28 -4 42 -8 14 -4 -8 9 -49 29 -41 20 -90 49 -110 65 -37 28 -86 48 -75 29z"/>
<path d="M1485 750 c-13 -6 -15 -9 -5 -9 8 0 22 4 30 9 18 12 2 12 -25 0z"/>
<path d="M1158 733 c7 -3 16 -2 19 1 4 3 -2 6 -13 5 -11 0 -14 -3 -6 -6z"/>
<path d="M1390 728 c-25 -5 -79 -7 -120 -4 -62 3 -69 3 -40 -6 20 -6 68 -7
115 -4 44 4 90 7 103 7 13 -1 20 4 17 9 -7 11 -13 11 -75 -2z"/>
<path d="M806 762 c-6 -10 51 -58 59 -50 3 3 -8 17 -24 32 -17 16 -31 23 -35
18z"/>
</g>
</svg>
